<svg width="20" height="21" viewBox="0 0 20 21" fill="none" xmlns="http://www.w3.org/2000/svg">
<path d="M10 5.3584C9.45 5.3584 9 5.8084 9 6.3584V9.3584H6C5.45 9.3584 5 9.8084 5 10.3584C5 10.9084 5.45 11.3584 6 11.3584H9V14.3584C9 14.9084 9.45 15.3584 10 15.3584C10.55 15.3584 11 14.9084 11 14.3584V11.3584H14C14.55 11.3584 15 10.9084 15 10.3584C15 9.8084 14.55 9.3584 14 9.3584H11V6.3584C11 5.8084 10.55 5.3584 10 5.3584ZM10 0.358398C4.48 0.358398 0 4.8384 0 10.3584C0 15.8784 4.48 20.3584 10 20.3584C15.52 20.3584 20 15.8784 20 10.3584C20 4.8384 15.52 0.358398 10 0.358398ZM10 18.3584C5.59 18.3584 2 14.7684 2 10.3584C2 5.9484 5.59 2.3584 10 2.3584C14.41 2.3584 18 5.9484 18 10.3584C18 14.7684 14.41 18.3584 10 18.3584Z" fill="#171717"/>
</svg>
