<svg width="47" height="28" viewBox="0 0 47 28" fill="none" xmlns="http://www.w3.org/2000/svg">
<path d="M4.6334 0C2.08865 0 0 2.08865 0 4.6334V19.3734C0 19.5399 0.00723968 19.6956 0.0289587 19.8657C0.047058 20.0431 0.0796365 20.2168 0.115835 20.387C0.209951 20.8286 0.358365 21.2485 0.550216 21.6322L0.579175 21.6611L2.72212 25.4837C3.53297 26.8737 5.05692 27.8004 6.77635 27.8004H11.1202V25.947H6.77635C5.72297 25.947 4.83249 25.3823 4.34381 24.557L4.08318 24.0937H42.2508L41.9902 24.557C41.516 25.3498 40.4952 25.947 39.5576 25.947H35.2138V27.8004H39.5576C41.2083 27.8004 42.7829 26.9063 43.6119 25.4837L45.7548 21.6611L45.7838 21.6322C45.9756 21.2485 46.124 20.8286 46.2182 20.387C46.2544 20.2168 46.2869 20.0431 46.305 19.8657C46.3267 19.6956 46.334 19.5399 46.334 19.3734V4.6334C46.334 2.08865 44.2453 0 41.7006 0H4.6334ZM35.2138 5.56008H37.0672V8.57179L39.6735 7.06593L40.6002 8.68762L37.9939 10.1935L40.6002 11.6993L39.6735 13.321L37.0672 11.8152V14.8269H35.2138V11.8152L32.6075 13.321L31.6809 11.6993L34.2872 10.1935L31.6809 8.68762L32.6365 7.06593L35.2138 8.57179V5.56008ZM2.08503 20.387H44.249C44.1983 20.5245 44.1693 20.6621 44.1042 20.7924L43.2933 22.2403H3.04067L2.22982 20.7924C2.16467 20.6621 2.13571 20.5245 2.08503 20.387Z" fill="url(#paint0_linear_1_259)"/>
<defs>
<linearGradient id="paint0_linear_1_259" x1="19.1727" y1="-4.98309" x2="62.4313" y2="12.0975" gradientUnits="userSpaceOnUse">
<stop stop-color="#00BAFF"/>
<stop offset="1" stop-color="#004EFF"/>
</linearGradient>
</defs>
</svg>
