<svg width="47" height="46" viewBox="0 0 47 46" fill="none" xmlns="http://www.w3.org/2000/svg">
<g filter="url(#filter0_i_1_247)">
<path d="M23.4294 0.179993C24.025 0.179993 24.5962 0.416589 25.0174 0.837734C25.4385 1.25888 25.6751 1.83007 25.6751 2.42566V4.67134C25.6751 5.26692 25.4385 5.83812 25.0174 6.25926C24.5962 6.68041 24.025 6.91701 23.4294 6.91701C22.8338 6.91701 22.2626 6.68041 21.8415 6.25926C21.4204 5.83812 21.1838 5.26692 21.1838 4.67134V2.42566C21.1838 1.83007 21.4204 1.25888 21.8415 0.837734C22.2626 0.416589 22.8338 0.179993 23.4294 0.179993ZM7.24488 6.45215C7.666 6.03115 8.23709 5.79465 8.83257 5.79465C9.42804 5.79465 9.99913 6.03115 10.4203 6.45215L12.6659 8.69782C13.075 9.12136 13.3013 9.68862 13.2962 10.2774C13.2911 10.8662 13.0549 11.4295 12.6386 11.8458C12.2222 12.2622 11.659 12.4984 11.0702 12.5035C10.4813 12.5086 9.91409 12.2823 9.49055 11.8732L7.24488 9.62753C6.82388 9.20641 6.58738 8.63531 6.58738 8.03984C6.58738 7.44437 6.82388 6.87328 7.24488 6.45215ZM39.614 6.45215C40.035 6.87328 40.2715 7.44437 40.2715 8.03984C40.2715 8.63531 40.035 9.20641 39.614 9.62753L37.3683 11.8732C37.1612 12.0877 36.9134 12.2588 36.6394 12.3765C36.3654 12.4942 36.0707 12.5561 35.7725 12.5587C35.4744 12.5613 35.1787 12.5045 34.9027 12.3916C34.6267 12.2786 34.3759 12.1119 34.1651 11.901C33.9542 11.6902 33.7875 11.4395 33.6746 11.1635C33.5617 10.8875 33.5048 10.5918 33.5074 10.2936C33.51 9.99542 33.572 9.70074 33.6897 9.42676C33.8074 9.15278 33.9784 8.90498 34.1929 8.69782L36.4386 6.45215C36.8597 6.03115 37.4308 5.79465 38.0263 5.79465C38.6218 5.79465 39.1929 6.03115 39.614 6.45215ZM23.4294 13.654C21.0471 13.654 18.7623 14.6004 17.0777 16.285C15.3931 17.9696 14.4467 20.2544 14.4467 22.6367C14.4467 25.0191 15.3931 27.3038 17.0777 28.9884C18.7623 30.673 21.0471 31.6194 23.4294 31.6194C25.8118 31.6194 28.0966 30.673 29.7811 28.9884C31.4657 27.3038 32.4121 25.0191 32.4121 22.6367C32.4121 20.2544 31.4657 17.9696 29.7811 16.285C28.0966 14.6004 25.8118 13.654 23.4294 13.654ZM9.9554 22.6367C9.95574 20.2716 10.5786 17.9482 11.7614 15.9002C12.9442 13.8521 14.6453 12.1514 16.6937 10.969C18.742 9.78671 21.0655 9.16437 23.4306 9.16458C25.7957 9.16479 28.1191 9.78754 30.1673 10.9702C32.2154 12.1529 33.9162 13.8539 35.0986 15.9022C36.2811 17.9505 36.9035 20.274 36.9035 22.6391C36.9034 25.0042 36.2808 27.3276 35.0982 29.3758C33.9156 31.424 32.2147 33.1249 30.1664 34.3075V38.3564C30.1664 40.1432 29.4567 41.8568 28.1932 43.1202C26.9298 44.3836 25.2162 45.0934 23.4294 45.0934C21.6427 45.0934 19.9291 44.3836 18.6656 43.1202C17.4022 41.8568 16.6924 40.1432 16.6924 38.3564V34.3075C14.6435 33.1251 12.9422 31.4239 11.7595 29.3751C10.5768 27.3264 9.95461 25.0023 9.9554 22.6367ZM21.1838 35.9243V38.3564C21.1838 38.952 21.4204 39.5232 21.8415 39.9443C22.2626 40.3655 22.8338 40.6021 23.4294 40.6021C24.025 40.6021 24.5962 40.3655 25.0174 39.9443C25.4385 39.5232 25.6751 38.952 25.6751 38.3564V35.9243C24.1884 36.1743 22.6704 36.1743 21.1838 35.9243ZM0.972717 22.6367C0.972717 22.0411 1.20931 21.4699 1.63046 21.0488C2.0516 20.6276 2.6228 20.391 3.21839 20.391H5.46406C6.05965 20.391 6.63084 20.6276 7.05199 21.0488C7.47313 21.4699 7.70973 22.0411 7.70973 22.6367C7.70973 23.2323 7.47313 23.8035 7.05199 24.2246C6.63084 24.6458 6.05965 24.8824 5.46406 24.8824H3.21839C2.6228 24.8824 2.0516 24.6458 1.63046 24.2246C1.20931 23.8035 0.972717 23.2323 0.972717 22.6367ZM39.1491 22.6367C39.1491 22.0411 39.3857 21.4699 39.8069 21.0488C40.228 20.6276 40.7992 20.391 41.3948 20.391H43.6405C44.2361 20.391 44.8073 20.6276 45.2284 21.0488C45.6495 21.4699 45.8861 22.0411 45.8861 22.6367C45.8861 23.2323 45.6495 23.8035 45.2284 24.2246C44.8073 24.6458 44.2361 24.8824 43.6405 24.8824H41.3948C40.7992 24.8824 40.228 24.6458 39.8069 24.2246C39.3857 23.8035 39.1491 23.2323 39.1491 22.6367Z" fill="url(#paint0_linear_1_247)"/>
</g>
<circle cx="23" cy="23" r="12" fill="url(#paint1_linear_1_247)"/>
<defs>
<filter id="filter0_i_1_247" x="0.972717" y="0.179993" width="44.9134" height="44.9134" filterUnits="userSpaceOnUse" color-interpolation-filters="sRGB">
<feFlood flood-opacity="0" result="BackgroundImageFix"/>
<feBlend mode="normal" in="SourceGraphic" in2="BackgroundImageFix" result="shape"/>
<feColorMatrix in="SourceAlpha" type="matrix" values="0 0 0 0 0 0 0 0 0 0 0 0 0 0 0 0 0 0 127 0" result="hardAlpha"/>
<feOffset/>
<feGaussianBlur stdDeviation="5"/>
<feComposite in2="hardAlpha" operator="arithmetic" k2="-1" k3="1"/>
<feColorMatrix type="matrix" values="0 0 0 0 0 0 0 0 0 0 0 0 0 0 0 0 0 0 0.1 0"/>
<feBlend mode="normal" in2="shape" result="effect1_innerShadow_1_247"/>
</filter>
<linearGradient id="paint0_linear_1_247" x1="19.5576" y1="-7.87053" x2="65.4515" y2="3.00217" gradientUnits="userSpaceOnUse">
<stop stop-color="#00BAFF"/>
<stop offset="1" stop-color="#004EFF"/>
</linearGradient>
<linearGradient id="paint1_linear_1_247" x1="20.931" y1="6.69811" x2="45.455" y2="12.5081" gradientUnits="userSpaceOnUse">
<stop stop-color="#00BAFF"/>
<stop offset="1" stop-color="#004EFF"/>
</linearGradient>
</defs>
</svg>
