<svg width="18" height="19" viewBox="0 0 18 19" fill="none" xmlns="http://www.w3.org/2000/svg">
<path d="M8.99942 9.12506C8.50214 9.12506 8.02523 8.92752 7.67359 8.57589C7.32196 8.22426 7.12442 7.74734 7.12442 7.25006C7.12442 6.75278 7.32196 6.27587 7.67359 5.92424C8.02523 5.5726 8.50214 5.37506 8.99942 5.37506C9.4967 5.37506 9.97361 5.5726 10.3252 5.92424C10.6769 6.27587 10.8744 6.75278 10.8744 7.25006C10.8744 7.49629 10.8259 7.74011 10.7317 7.96759C10.6375 8.19508 10.4994 8.40178 10.3252 8.57589C10.1511 8.75 9.94444 8.88811 9.71695 8.98233C9.48947 9.07656 9.24565 9.12506 8.99942 9.12506ZM8.99942 2.00006C7.60703 2.00006 6.27168 2.55318 5.28711 3.53775C4.30254 4.52232 3.74942 5.85767 3.74942 7.25006C3.74942 11.1876 8.99942 17.0001 8.99942 17.0001C8.99942 17.0001 14.2494 11.1876 14.2494 7.25006C14.2494 5.85767 13.6963 4.52232 12.7117 3.53775C11.7272 2.55318 10.3918 2.00006 8.99942 2.00006Z" fill="#848184"/>
</svg>
