<svg width="24" height="25" viewBox="0 0 24 25" fill="none" xmlns="http://www.w3.org/2000/svg">
<path d="M20 2.3584H4C2.9 2.3584 2.01 3.2584 2.01 4.3584L2 22.3584L6 18.3584H20C21.1 18.3584 22 17.4584 22 16.3584V4.3584C22 3.2584 21.1 2.3584 20 2.3584ZM17 14.3584H7C6.45 14.3584 6 13.9084 6 13.3584C6 12.8084 6.45 12.3584 7 12.3584H17C17.55 12.3584 18 12.8084 18 13.3584C18 13.9084 17.55 14.3584 17 14.3584ZM17 11.3584H7C6.45 11.3584 6 10.9084 6 10.3584C6 9.8084 6.45 9.3584 7 9.3584H17C17.55 9.3584 18 9.8084 18 10.3584C18 10.9084 17.55 11.3584 17 11.3584ZM17 8.3584H7C6.45 8.3584 6 7.9084 6 7.3584C6 6.8084 6.45 6.3584 7 6.3584H17C17.55 6.3584 18 6.8084 18 7.3584C18 7.9084 17.55 8.3584 17 8.3584Z" fill="#BEF264"/>
</svg>
