<svg width="24" height="25" viewBox="0 0 24 25" fill="none" xmlns="http://www.w3.org/2000/svg">
<path d="M12.0013 22.1084C13.1013 22.1084 14.0013 21.2084 14.0013 20.1084H10.0013C10.0013 21.2084 10.8913 22.1084 12.0013 22.1084ZM18.0013 16.1084V11.1084C18.0013 8.0384 16.3613 5.4684 13.5013 4.7884V4.1084C13.5013 3.2784 12.8313 2.6084 12.0013 2.6084C11.1713 2.6084 10.5013 3.2784 10.5013 4.1084V4.7884C7.63127 5.4684 6.00127 8.0284 6.00127 11.1084V16.1084L4.71127 17.3984C4.08127 18.0284 4.52127 19.1084 5.41127 19.1084H18.5813C19.4713 19.1084 19.9213 18.0284 19.2913 17.3984L18.0013 16.1084Z" fill="#BEF264"/>
</svg>
