<svg width="52" height="51" viewBox="0 0 52 51" fill="none" xmlns="http://www.w3.org/2000/svg">
<g opacity="0.24" filter="url(#filter0_f_1_200)">
<circle cx="26.225" cy="25.5648" r="20.2251" fill="#081939" style="mix-blend-mode:multiply"/>
</g>
<g filter="url(#filter1_d_1_200)">
<path d="M43.5111 22.3042C43.5111 31.861 35.7637 39.6084 26.2069 39.6084C16.6501 39.6084 8.90271 31.861 8.90271 22.3042C8.90271 12.7474 16.6501 5 26.2069 5C35.7637 5 43.5111 12.7474 43.5111 22.3042Z" fill="#081939"/>
<path d="M43.5111 22.3042C43.5111 31.861 35.7637 39.6084 26.2069 39.6084C16.6501 39.6084 8.90271 31.861 8.90271 22.3042C8.90271 12.7474 16.6501 5 26.2069 5C35.7637 5 43.5111 12.7474 43.5111 22.3042Z" fill="url(#paint0_radial_1_200)" fill-opacity="0.9"/>
<path d="M43.5111 22.3042C43.5111 31.861 35.7637 39.6084 26.2069 39.6084C16.6501 39.6084 8.90271 31.861 8.90271 22.3042C8.90271 12.7474 16.6501 5 26.2069 5C35.7637 5 43.5111 12.7474 43.5111 22.3042Z" fill="url(#paint1_radial_1_200)" fill-opacity="0.85"/>
<path d="M43.5111 22.3042C43.5111 31.861 35.7637 39.6084 26.2069 39.6084C16.6501 39.6084 8.90271 31.861 8.90271 22.3042C8.90271 12.7474 16.6501 5 26.2069 5C35.7637 5 43.5111 12.7474 43.5111 22.3042Z" fill="url(#paint2_radial_1_200)" fill-opacity="0.8"/>
<path d="M43.5111 22.3042C43.5111 31.861 35.7637 39.6084 26.2069 39.6084C16.6501 39.6084 8.90271 31.861 8.90271 22.3042C8.90271 12.7474 16.6501 5 26.2069 5C35.7637 5 43.5111 12.7474 43.5111 22.3042Z" fill="url(#paint3_radial_1_200)" fill-opacity="0.88"/>
</g>
<path d="M20.0036 12.7979C18.6727 8.59985 24.8164 8.49875 26.9662 13.4124C28.0532 15.8969 27.8447 19.4292 27.6111 22.9696C24.2703 19.0439 20.7014 14.999 20.0036 12.7979Z" fill="url(#paint4_linear_1_200)"/>
<path d="M28.5694 34.3004C39.5301 32.3661 44.1516 22.8854 40.0041 16.8523C38.0697 14.0385 35.0403 14.5608 28.5694 14.9484C22.0985 15.3359 15.6672 16.4227 15.6671 24.8803C15.667 33.338 23.5332 35.1891 28.5694 34.3004Z" fill="url(#paint5_radial_1_200)"/>
<path d="M28.5694 34.3004C39.5301 32.3661 44.1516 22.8854 40.0041 16.8523C38.0697 14.0385 35.0403 14.5608 28.5694 14.9484C22.0985 15.3359 15.6672 16.4227 15.6671 24.8803C15.667 33.338 23.5332 35.1891 28.5694 34.3004Z" fill="url(#paint6_linear_1_200)"/>
<g style="mix-blend-mode:hard-light">
<path d="M18.8421 24.3682C18.8419 18.7111 20.5903 13.4342 21.47 10.936C21.8319 9.90804 23.1866 9.61538 24.0897 10.2254C25.6274 11.1526 28.7255 13.4053 31.8527 15.5649C35.1024 17.809 39.7886 20.29 37.6379 27.6471C36.0084 33.2214 28.0574 32.9692 28.0574 32.9692C28.0574 32.9692 18.8424 32.8158 18.8421 24.3682Z" fill="url(#paint7_linear_1_200)"/>
</g>
<path d="M36.6243 32.7112C41.1295 28.7692 42.6936 20.5292 39.673 15.4098C36.6524 10.2904 32.349 9.09824 28.7683 9.26608C25.1877 9.43392 17.9148 11.6728 17.6076 19.7101C17.3004 27.7473 21.4804 31.1563 25.8526 34.9974C27.5419 36.4816 32.1192 36.6531 36.6243 32.7112Z" fill="url(#paint8_linear_1_200)"/>
<path d="M20.9715 30.2704C21.2291 30.4227 21.4592 30.5709 21.6311 30.7249C23.8736 32.7331 27.3114 32.52 30.952 31.5679C34.7919 30.5637 41.0203 28.7541 42.0315 23.9617C42.6044 21.2468 40.5255 17.5999 37.7371 14.6409C35.1971 11.9454 32.0982 9.8208 29.2911 9.49143C28.5877 9.40891 27.7294 9.40111 26.8084 9.52097C21.476 10.6211 18.5974 13.6025 18.1578 19.6699C17.7181 25.7372 18.2143 26.9085 20.9715 30.2704Z" fill="url(#paint9_linear_1_200)" fill-opacity="0.78"/>
<g style="mix-blend-mode:color-dodge">
<path d="M14.421 23.8739C13.5856 18.0703 16.0468 11.8138 21.6756 11.8138C26.1193 11.8138 28.6304 15.211 32.0443 17.4425C36.2368 20.1829 39.4505 22.0729 39.4505 24.8487C39.4505 29.885 31.9419 32.5597 24.78 29.6927C19.5544 27.6009 15.2563 29.6775 14.421 23.8739Z" fill="url(#paint10_radial_1_200)" fill-opacity="0.8"/>
</g>
<path d="M14.421 23.8739C13.5856 18.0703 16.0468 11.8138 21.6756 11.8138C26.1193 11.8138 28.6304 15.211 32.0443 17.4425C36.2368 20.1829 39.4505 22.0729 39.4505 24.8487C39.4505 29.885 31.9419 32.5597 24.78 29.6927C19.5544 27.6009 15.2563 29.6775 14.421 23.8739Z" fill="url(#paint11_linear_1_200)"/>
<path d="M28.0411 32.4059C29.8841 37.4744 34.5432 35.8865 33.8261 31.8937C33.4849 29.9944 30.6416 26.531 27.6106 22.9693C27.3823 26.4308 27.1299 29.9002 28.0411 32.4059Z" fill="url(#paint12_radial_1_200)"/>
<path d="M28.0411 32.4059C29.8841 37.4744 34.5432 35.8865 33.8261 31.8937C33.4849 29.9944 30.6416 26.531 27.6106 22.9693C27.3823 26.4308 27.1299 29.9002 28.0411 32.4059Z" fill="url(#paint13_linear_1_200)"/>
<g filter="url(#filter2_df_1_200)">
<path d="M30.5625 21.9765C30.5625 24.3829 28.6117 26.3337 26.2053 26.3337C23.7989 26.3337 21.8481 24.3829 21.8481 21.9765C21.8481 21.0513 22.1365 20.1933 22.6283 19.4878C23.1258 18.7741 23.4634 18.6814 22.8948 18.023C22.1562 17.1676 21.5069 16.1068 25.1266 15.535C28.5032 15.0014 30.2015 14.8015 29.291 17.9173C29.0831 18.6287 29.3129 18.8341 29.7455 19.4359C30.2597 20.1511 30.5625 21.0284 30.5625 21.9765Z" fill="white"/>
</g>
<defs>
<filter id="filter0_f_1_200" x="0.784038" y="0.123889" width="50.8819" height="50.8819" filterUnits="userSpaceOnUse" color-interpolation-filters="sRGB">
<feFlood flood-opacity="0" result="BackgroundImageFix"/>
<feBlend mode="normal" in="SourceGraphic" in2="BackgroundImageFix" result="shape"/>
<feGaussianBlur stdDeviation="2.60792" result="effect1_foregroundBlur_1_200"/>
</filter>
<filter id="filter1_d_1_200" x="5.71526" y="3.08753" width="40.9833" height="40.9833" filterUnits="userSpaceOnUse" color-interpolation-filters="sRGB">
<feFlood flood-opacity="0" result="BackgroundImageFix"/>
<feColorMatrix in="SourceAlpha" type="matrix" values="0 0 0 0 0 0 0 0 0 0 0 0 0 0 0 0 0 0 127 0" result="hardAlpha"/>
<feOffset dy="1.27498"/>
<feGaussianBlur stdDeviation="1.59373"/>
<feColorMatrix type="matrix" values="0 0 0 0 0.121569 0 0 0 0 0.145098 0 0 0 0 0.258824 0 0 0 0.63 0"/>
<feBlend mode="multiply" in2="BackgroundImageFix" result="effect1_dropShadow_1_200"/>
<feBlend mode="normal" in="SourceGraphic" in2="effect1_dropShadow_1_200" result="shape"/>
</filter>
<filter id="filter2_df_1_200" x="18.0811" y="11.4559" width="17.4074" height="19.8039" filterUnits="userSpaceOnUse" color-interpolation-filters="sRGB">
<feFlood flood-opacity="0" result="BackgroundImageFix"/>
<feColorMatrix in="SourceAlpha" type="matrix" values="0 0 0 0 0 0 0 0 0 0 0 0 0 0 0 0 0 0 127 0" result="hardAlpha"/>
<feOffset dx="0.579537" dy="0.579537"/>
<feGaussianBlur stdDeviation="2.17326"/>
<feColorMatrix type="matrix" values="0 0 0 0 1 0 0 0 0 1 0 0 0 0 1 0 0 0 1 0"/>
<feBlend mode="normal" in2="BackgroundImageFix" result="effect1_dropShadow_1_200"/>
<feBlend mode="normal" in="SourceGraphic" in2="effect1_dropShadow_1_200" result="shape"/>
<feGaussianBlur stdDeviation="1.04317" result="effect2_foregroundBlur_1_200"/>
</filter>
<radialGradient id="paint0_radial_1_200" cx="0" cy="0" r="1" gradientUnits="userSpaceOnUse" gradientTransform="translate(20.5754 10.6828) rotate(63.1327) scale(13.0276 15.4543)">
<stop stop-color="#7D7194"/>
<stop offset="1" stop-color="#7D7194" stop-opacity="0"/>
</radialGradient>
<radialGradient id="paint1_radial_1_200" cx="0" cy="0" r="1" gradientUnits="userSpaceOnUse" gradientTransform="translate(42.5897 16.7239) rotate(161.19) scale(17.3071)">
<stop stop-color="#4A8F9F"/>
<stop offset="1" stop-color="#4A8F9F" stop-opacity="0"/>
</radialGradient>
<radialGradient id="paint2_radial_1_200" cx="0" cy="0" r="1" gradientUnits="userSpaceOnUse" gradientTransform="translate(31.9409 38.687) rotate(-108.939) scale(11.0417)">
<stop stop-color="#5C4763"/>
<stop offset="1" stop-color="#5C4763" stop-opacity="0"/>
</radialGradient>
<radialGradient id="paint3_radial_1_200" cx="0" cy="0" r="1" gradientUnits="userSpaceOnUse" gradientTransform="translate(7.36684 28.5502) rotate(-18.3418) scale(19.8484 27.5899)">
<stop stop-color="#3D3041"/>
<stop offset="1" stop-color="#3D3041" stop-opacity="0"/>
</radialGradient>
<linearGradient id="paint4_linear_1_200" x1="19.8168" y1="12.5932" x2="27.2372" y2="11.3645" gradientUnits="userSpaceOnUse">
<stop stop-color="#E375A0"/>
<stop offset="1" stop-color="#E375A0" stop-opacity="0"/>
</linearGradient>
<radialGradient id="paint5_radial_1_200" cx="0" cy="0" r="1" gradientUnits="userSpaceOnUse" gradientTransform="translate(21.9129 17.6105) rotate(69.3339) scale(12.4754 15.0266)">
<stop stop-color="#B850C1"/>
<stop offset="1" stop-color="#DCADE0" stop-opacity="0"/>
</radialGradient>
<linearGradient id="paint6_linear_1_200" x1="29.4132" y1="14.6203" x2="29.2973" y2="18.5032" gradientUnits="userSpaceOnUse">
<stop stop-color="#B850C1"/>
<stop offset="1" stop-color="#DCADE0" stop-opacity="0"/>
</linearGradient>
<linearGradient id="paint7_linear_1_200" x1="20.7876" y1="27.0304" x2="30.4124" y2="23.3443" gradientUnits="userSpaceOnUse">
<stop stop-color="#7EA1E4"/>
<stop offset="1" stop-color="#70CBFF" stop-opacity="0"/>
</linearGradient>
<linearGradient id="paint8_linear_1_200" x1="41.1813" y1="21.2966" x2="29.4138" y2="26.5998" gradientUnits="userSpaceOnUse">
<stop stop-color="#5BAEEC"/>
<stop offset="1" stop-color="#5BAEEC" stop-opacity="0"/>
</linearGradient>
<linearGradient id="paint9_linear_1_200" x1="21.763" y1="20.0487" x2="37.3711" y2="22.9505" gradientUnits="userSpaceOnUse">
<stop stop-color="#85FAFE" stop-opacity="0"/>
<stop offset="1" stop-color="#85FAFE"/>
</linearGradient>
<radialGradient id="paint10_radial_1_200" cx="0" cy="0" r="1" gradientUnits="userSpaceOnUse" gradientTransform="translate(20.9521 14.7942) rotate(84.3771) scale(11.4209 12.7558)">
<stop stop-color="#65ECE8"/>
<stop offset="1" stop-color="#8BECE9" stop-opacity="0"/>
</radialGradient>
<linearGradient id="paint11_linear_1_200" x1="34.7451" y1="27.7758" x2="38.1064" y2="21.3429" gradientUnits="userSpaceOnUse">
<stop stop-color="#7BE7F6" stop-opacity="0"/>
<stop offset="0.75" stop-color="#7BE7F6"/>
</linearGradient>
<radialGradient id="paint12_radial_1_200" cx="0" cy="0" r="1" gradientUnits="userSpaceOnUse" gradientTransform="translate(28.7725 34.4027) rotate(-68.2079) scale(7.1724 9.20853)">
<stop stop-color="#E375A0" stop-opacity="0"/>
<stop offset="1" stop-color="#FF91C6"/>
</radialGradient>
<linearGradient id="paint13_linear_1_200" x1="28.0558" y1="24.4707" x2="28.5677" y2="27.952" gradientUnits="userSpaceOnUse">
<stop stop-color="white"/>
<stop offset="1" stop-color="white" stop-opacity="0"/>
</linearGradient>
</defs>
</svg>
