<svg width="39" height="39" viewBox="0 0 39 39" fill="none" xmlns="http://www.w3.org/2000/svg">
<path d="M21.4476 0C21.266 4.78102e-05 21.0885 0.0542632 20.9378 0.155715C20.7872 0.257167 20.6702 0.401245 20.6018 0.569529C20.5335 0.737814 20.5169 0.922659 20.5541 1.10043C20.5914 1.2782 20.6808 1.44083 20.811 1.56751C24.7543 5.51082 24.7543 11.8548 20.811 15.7982C20.7233 15.8823 20.6534 15.9831 20.6052 16.0946C20.557 16.2061 20.5315 16.3261 20.5303 16.4475C20.5291 16.569 20.5521 16.6895 20.598 16.802C20.6439 16.9145 20.7118 17.0166 20.7977 17.1025C20.8836 17.1884 20.9858 17.2563 21.0982 17.3022C21.2107 17.3482 21.3312 17.3712 21.4527 17.3699C21.5741 17.3687 21.6941 17.3432 21.8057 17.295C21.9172 17.2468 22.0179 17.1769 22.1021 17.0893C26.7414 12.45 26.7414 4.91571 22.1021 0.27641C22.017 0.188945 21.9152 0.119422 21.8028 0.0719463C21.6904 0.024471 21.5696 7.08868e-06 21.4476 0ZM18.8904 2.55545C18.7084 2.55513 18.5304 2.60921 18.3794 2.71075C18.2283 2.81229 18.111 2.95666 18.0426 3.12532C17.9742 3.29397 17.9577 3.47923 17.9954 3.65731C18.033 3.83539 18.1229 3.99817 18.2537 4.12475C20.7301 6.60113 20.7301 10.6736 18.2537 13.15C18.1661 13.2341 18.0962 13.3349 18.048 13.4464C17.9998 13.5579 17.9743 13.6779 17.9731 13.7994C17.9718 13.9208 17.9948 14.0413 18.0408 14.1538C18.0867 14.2663 18.1546 14.3684 18.2405 14.4543C18.3264 14.5402 18.4285 14.6081 18.541 14.654C18.6535 14.7 18.774 14.723 18.8954 14.7217C19.0169 14.7205 19.1369 14.695 19.2484 14.6468C19.3599 14.5987 19.4607 14.5287 19.5448 14.4411C22.7293 11.2566 22.7293 6.01813 19.5448 2.83364C19.4599 2.74586 19.3582 2.676 19.2458 2.62822C19.1334 2.58043 19.0125 2.55569 18.8904 2.55545ZM16.2422 5.20363C16.0607 5.20404 15.8835 5.25851 15.7331 5.3601C15.5827 5.46168 15.466 5.60578 15.3979 5.77399C15.3297 5.9422 15.3133 6.1269 15.3506 6.3045C15.3879 6.48211 15.4773 6.64457 15.6073 6.77115C16.7319 7.89575 16.7319 9.56085 15.6073 10.6855C15.5197 10.7696 15.4498 10.8704 15.4016 10.9819C15.3534 11.0934 15.3279 11.2134 15.3267 11.3349C15.3254 11.4563 15.3484 11.5768 15.3944 11.6893C15.4403 11.8018 15.5082 11.9039 15.5941 11.9898C15.68 12.0757 15.7821 12.1436 15.8946 12.1895C16.0071 12.2355 16.1276 12.2585 16.249 12.2572C16.3705 12.256 16.4905 12.2305 16.602 12.1823C16.7135 12.1341 16.8143 12.0642 16.8984 11.9766C18.6956 10.1794 18.6956 7.27717 16.8984 5.48004C16.8131 5.39236 16.7111 5.32272 16.5984 5.27523C16.4856 5.22775 16.3645 5.2034 16.2422 5.20363ZM5.47826 7.76979C4.93043 7.76979 4.56522 8.135 4.56522 8.68283V26.0307H6.3913V8.68283C6.3913 8.135 6.02609 7.76979 5.47826 7.76979ZM12.7826 7.76979C12.2348 7.76979 11.8696 8.135 11.8696 8.68283V26.0307H13.6957V8.68283C13.6957 8.135 13.3304 7.76979 12.7826 7.76979ZM2.73913 27.8567C1.18696 27.8567 0 29.0437 0 30.5959V36.0741C0 37.6263 1.18696 38.8133 2.73913 38.8133H35.6087C37.1609 38.8133 38.3478 37.6263 38.3478 36.0741V30.5959C38.3478 29.0437 37.1609 27.8567 35.6087 27.8567H2.73913ZM5.47826 32.422C6.02609 32.422 6.3913 32.7872 6.3913 33.335C6.3913 33.8828 6.02609 34.2481 5.47826 34.2481C4.93043 34.2481 4.56522 33.8828 4.56522 33.335C4.56522 32.7872 4.93043 32.422 5.47826 32.422ZM9.13043 32.422C9.67826 32.422 10.0435 32.7872 10.0435 33.335C10.0435 33.8828 9.67826 34.2481 9.13043 34.2481C8.58261 34.2481 8.21739 33.8828 8.21739 33.335C8.21739 32.7872 8.58261 32.422 9.13043 32.422ZM12.7826 32.422C13.3304 32.422 13.6957 32.7872 13.6957 33.335C13.6957 33.8828 13.3304 34.2481 12.7826 34.2481C12.2348 34.2481 11.8696 33.8828 11.8696 33.335C11.8696 32.7872 12.2348 32.422 12.7826 32.422ZM16.4348 32.422C16.9826 32.422 17.3478 32.7872 17.3478 33.335C17.3478 33.8828 16.9826 34.2481 16.4348 34.2481C15.887 34.2481 15.5217 33.8828 15.5217 33.335C15.5217 32.7872 15.887 32.422 16.4348 32.422ZM20.087 32.422C20.6348 32.422 21 32.7872 21 33.335C21 33.8828 20.6348 34.2481 20.087 34.2481C19.5391 34.2481 19.1739 33.8828 19.1739 33.335C19.1739 32.7872 19.5391 32.422 20.087 32.422Z" fill="#B7B7B7"/>
</svg>
